<svg width="467" height="444" viewBox="0 0 467 444" fill="none" xmlns="http://www.w3.org/2000/svg">
<path d="M465.505 156.081C463.978 151.405 461.009 147.335 457.028 144.444C453.044 141.557 448.251 140.002 443.333 140.002H299.253L255.343 15.5724C253.187 9.46303 248.589 4.52542 242.648 1.93942C236.707 -0.646475 229.957 -0.646475 224.015 1.93942C218.074 4.52533 213.476 9.46283 211.32 15.5724L167.41 140.002H23.3303C16.7326 140.006 10.4433 142.799 6.0183 147.698C1.5964 152.596 -0.548095 159.136 0.119905 165.702C0.787875 172.264 4.2058 178.241 9.5222 182.147L123.112 265.456L71.3192 412.246C69.1004 418.558 69.6981 425.519 72.9559 431.363C76.2176 437.207 81.8309 441.371 88.3659 442.801C94.905 444.227 101.741 442.781 107.139 438.828L233.329 346.281L359.519 438.828C364.917 442.781 371.753 444.226 378.292 442.797C384.827 441.371 390.44 437.207 393.698 431.363C396.96 425.519 397.557 418.558 395.339 412.246L343.546 265.456L457.135 182.147C461.1 179.241 464.046 175.155 465.546 170.471C467.05 165.787 467.03 160.752 465.499 156.08L465.505 156.081Z" fill="black"/>
</svg>
